<svg width="20" height="20" viewBox="0 0 20 20" fill="none" xmlns="http://www.w3.org/2000/svg">
<g clip-path="url(#clip0_4_1713)">
<path d="M14.4167 6.33334H13.6667V4.83334C13.6667 2.75001 12.0833 1.16667 10 1.16667C7.91667 1.16667 6.33334 2.75001 6.33334 4.83334V6.33334H5.58334C4.75 6.33334 4.08334 7 4.08334 7.83334V15.25C4.08334 16.0833 4.75 16.75 5.58334 16.75H14.4167C15.25 16.75 15.9167 16.0833 15.9167 15.25V7.83334C15.9167 7 15.25 6.33334 14.4167 6.33334ZM10 13.1667C9.08334 13.1667 8.33334 12.4167 8.33334 11.5C8.33334 10.5833 9.08334 9.83334 10 9.83334C10.9167 9.83334 11.6667 10.5833 11.6667 11.5C11.6667 12.4167 10.9167 13.1667 10 13.1667ZM12.25 6.33334H7.66667V4.83334C7.66667 3.58334 8.66667 2.58334 9.91667 2.58334C11.1667 2.58334 12.1667 3.58334 12.1667 4.83334V6.33334H12.25Z" fill="#667781"/>
</g>
<defs>
<clipPath id="clip0_4_1713">
<rect width="20" height="20" fill="white"/>
</clipPath>
</defs>
</svg>
