<svg width="25" height="24" viewBox="0 0 25 24" fill="none" xmlns="http://www.w3.org/2000/svg">
<g clip-path="url(#clip0_4_1706)">
<path d="M12.499 14.942C14.5 14.942 16.03 13.412 16.03 11.411V4.35C16.03 2.349 14.5 0.819 12.499 0.819C10.498 0.819 8.96899 2.35 8.96899 4.35V11.411C8.96899 13.412 10.499 14.942 12.499 14.942ZM18.737 11.412C18.737 14.943 15.795 17.414 12.5 17.414C9.20499 17.414 6.26299 14.943 6.26299 11.412H4.26099C4.26099 15.413 7.43899 18.709 11.322 19.297V23.181H13.676V19.297C17.56 18.709 20.737 15.413 20.737 11.412H18.737Z" fill="#54656F"/>
</g>
<defs>
<clipPath id="clip0_4_1706">
<rect width="24" height="24" fill="white" transform="translate(0.5)"/>
</clipPath>
</defs>
</svg>
