<svg width="27" height="26" viewBox="0 0 27 26" fill="none" xmlns="http://www.w3.org/2000/svg">
<path d="M10.4157 12.5699C11.277 12.5699 11.9747 11.6177 11.9747 10.4444C11.9747 9.27116 11.277 8.31891 10.4157 8.31891C9.55449 8.31891 8.85683 9.27116 8.85683 10.4444C8.85683 11.6177 9.55449 12.5699 10.4157 12.5699ZM6.94474 14.0454C6.91658 13.7128 6.80283 19.6982 13.513 20.059C20.0845 19.7882 20.0845 14.0454 20.0845 14.0454C13.5 15.5794 6.94474 14.0454 6.94474 14.0454ZM19.2547 15.2457C19.2547 15.2457 18.5299 17.368 13.7827 17.368C9.98566 17.368 7.94574 16.107 7.70849 15.2457C7.70849 15.2457 14.1132 16.3887 19.2547 15.2457ZM13.2877 1.09525C6.57641 1.09525 1.55949 6.53575 1.55949 13.247C1.55949 19.9582 6.78766 24.9047 13.4989 24.9047C20.2102 24.9047 25.4383 19.9582 25.4383 13.247C25.4394 6.53575 19.9989 1.09525 13.2877 1.09525ZM13.5 23.1335C7.78758 23.1335 3.33724 18.9237 3.33724 13.2112C3.33724 7.49883 7.60774 2.86758 13.3202 2.86758C19.0326 2.86758 23.6638 7.49883 23.6638 13.2112C23.6627 18.9226 19.2124 23.1335 13.5 23.1335ZM16.867 12.5699C17.7282 12.5699 18.4259 11.6177 18.4259 10.4444C18.4259 9.27116 17.7282 8.31891 16.867 8.31891C16.0057 8.31891 15.3081 9.27116 15.3081 10.4444C15.3081 11.6177 16.0057 12.5699 16.867 12.5699Z" fill="#54656F"/>
</svg>
