<svg width="16" height="12" viewBox="0 0 16 12" fill="none" xmlns="http://www.w3.org/2000/svg">
<path d="M11.0714 1.15283C10.991 1.08512 10.8894 1.05127 10.7667 1.05127C10.6186 1.05127 10.4916 1.11051 10.3858 1.229L4.19688 8.86523L1.79112 6.59277C1.7488 6.54622 1.69802 6.51025 1.63877 6.48486C1.57953 6.45947 1.51817 6.44678 1.45469 6.44678C1.32351 6.44678 1.20925 6.49544 1.11192 6.59277L0.800888 6.90381C0.707789 6.99268 0.66124 7.10482 0.66124 7.24023C0.66124 7.37565 0.707789 7.48991 0.800888 7.58301L3.79698 10.5791C3.94509 10.7145 4.11224 10.7822 4.29844 10.7822C4.40424 10.7822 4.5058 10.759 4.60313 10.7124C4.70046 10.6659 4.78086 10.6003 4.84434 10.5156L11.4903 2.09863C11.5623 2.0013 11.5982 1.90186 11.5982 1.80029C11.5982 1.64372 11.5348 1.51888 11.4078 1.42578L11.0714 1.15283ZM8.6212 8.82715C8.43077 8.70866 8.24881 8.59017 8.0753 8.47168C7.99489 8.39128 7.8891 8.35107 7.75791 8.35107C7.6098 8.35107 7.4892 8.40397 7.3961 8.50977L7.10411 8.83984C7.01947 8.93717 6.97715 9.04508 6.97715 9.16357C6.97715 9.29476 7.0237 9.40902 7.1168 9.50635L8.1959 10.5791C8.33132 10.7145 8.49636 10.7822 8.69102 10.7822C8.79681 10.7822 8.89839 10.759 8.99572 10.7124C9.09305 10.6659 9.17556 10.6003 9.24327 10.5156L15.8639 2.12402C15.9358 2.03939 15.9718 1.93994 15.9718 1.82568C15.9718 1.6818 15.9125 1.55697 15.794 1.45117L15.4386 1.17822C15.3582 1.11051 15.2587 1.07666 15.1402 1.07666C14.9964 1.07666 14.8715 1.1359 14.7657 1.25439L8.6212 8.82715Z" fill="#53BDEB"/>
</svg>
